<svg id="visual" viewBox="0 0 1520 200" width="1520" height="200" xmlns="http://www.w3.org/2000/svg" xmlns:xlink="http://www.w3.org/1999/xlink" version="1.1"><path d="M0 33L14 32.7C28 32.3 56 31.7 84.2 28.3C112.3 25 140.7 19 168.8 15C197 11 225 9 253.2 13.3C281.3 17.7 309.7 28.3 337.8 29.7C366 31 394 23 422.2 20.7C450.3 18.3 478.7 21.7 506.8 22C535 22.3 563 19.7 591.2 19.7C619.3 19.7 647.7 22.3 675.8 24C704 25.7 732 26.3 760 23.7C788 21 816 15 844.2 13.7C872.3 12.3 900.7 15.7 928.8 18.3C957 21 985 23 1013.2 26C1041.3 29 1069.7 33 1097.8 32.7C1126 32.3 1154 27.7 1182.2 25C1210.3 22.3 1238.7 21.7 1266.8 21.3C1295 21 1323 21 1351.2 23.3C1379.3 25.7 1407.7 30.3 1435.8 30.7C1464 31 1492 27 1506 25L1520 23L1520 0L1506 0C1492 0 1464 0 1435.8 0C1407.7 0 1379.3 0 1351.2 0C1323 0 1295 0 1266.8 0C1238.7 0 1210.3 0 1182.2 0C1154 0 1126 0 1097.8 0C1069.7 0 1041.3 0 1013.2 0C985 0 957 0 928.8 0C900.7 0 872.3 0 844.2 0C816 0 788 0 760 0C732 0 704 0 675.8 0C647.7 0 619.3 0 591.2 0C563 0 535 0 506.8 0C478.7 0 450.3 0 422.2 0C394 0 366 0 337.8 0C309.7 0 281.3 0 253.2 0C225 0 197 0 168.8 0C140.7 0 112.3 0 84.2 0C56 0 28 0 14 0L0 0Z" fill="#004cbb"></path><path d="M0 61L14 60C28 59 56 57 84.2 52.3C112.3 47.7 140.7 40.3 168.8 41.3C197 42.3 225 51.7 253.2 58.3C281.3 65 309.7 69 337.8 66.7C366 64.3 394 55.7 422.2 52.7C450.3 49.7 478.7 52.3 506.8 54.3C535 56.3 563 57.7 591.2 54.7C619.3 51.7 647.7 44.3 675.8 46.7C704 49 732 61 760 59.7C788 58.3 816 43.7 844.2 39C872.3 34.3 900.7 39.7 928.8 45.7C957 51.7 985 58.3 1013.2 61.7C1041.3 65 1069.7 65 1097.8 68C1126 71 1154 77 1182.2 77C1210.3 77 1238.7 71 1266.8 63.7C1295 56.3 1323 47.7 1351.2 50.3C1379.3 53 1407.7 67 1435.8 69.7C1464 72.3 1492 63.7 1506 59.3L1520 55L1520 21L1506 23C1492 25 1464 29 1435.8 28.7C1407.7 28.3 1379.3 23.7 1351.2 21.3C1323 19 1295 19 1266.8 19.3C1238.7 19.7 1210.3 20.3 1182.2 23C1154 25.7 1126 30.3 1097.8 30.7C1069.7 31 1041.3 27 1013.2 24C985 21 957 19 928.8 16.3C900.7 13.7 872.3 10.3 844.2 11.7C816 13 788 19 760 21.7C732 24.3 704 23.7 675.8 22C647.7 20.3 619.3 17.7 591.2 17.7C563 17.7 535 20.3 506.8 20C478.7 19.7 450.3 16.3 422.2 18.7C394 21 366 29 337.8 27.7C309.7 26.3 281.3 15.7 253.2 11.3C225 7 197 9 168.8 13C140.7 17 112.3 23 84.2 26.3C56 29.7 28 30.3 14 30.7L0 31Z" fill="#0062f3"></path><path d="M0 125L14 118C28 111 56 97 84.2 93.3C112.3 89.7 140.7 96.3 168.8 96.7C197 97 225 91 253.2 93C281.3 95 309.7 105 337.8 108.3C366 111.7 394 108.3 422.2 100.7C450.3 93 478.7 81 506.8 83.7C535 86.3 563 103.7 591.2 113C619.3 122.3 647.7 123.7 675.8 122C704 120.3 732 115.7 760 106.7C788 97.7 816 84.3 844.2 77C872.3 69.7 900.7 68.3 928.8 74C957 79.7 985 92.3 1013.2 101C1041.3 109.7 1069.7 114.3 1097.8 118C1126 121.7 1154 124.3 1182.2 121.3C1210.3 118.3 1238.7 109.7 1266.8 105.7C1295 101.7 1323 102.3 1351.2 103.3C1379.3 104.3 1407.7 105.7 1435.8 106.7C1464 107.7 1492 108.3 1506 108.7L1520 109L1520 53L1506 57.3C1492 61.7 1464 70.3 1435.8 67.7C1407.7 65 1379.3 51 1351.2 48.3C1323 45.7 1295 54.3 1266.8 61.7C1238.7 69 1210.3 75 1182.2 75C1154 75 1126 69 1097.8 66C1069.7 63 1041.3 63 1013.2 59.7C985 56.3 957 49.7 928.8 43.7C900.7 37.7 872.3 32.3 844.2 37C816 41.7 788 56.3 760 57.7C732 59 704 47 675.8 44.7C647.7 42.3 619.3 49.7 591.2 52.7C563 55.7 535 54.3 506.8 52.3C478.7 50.3 450.3 47.7 422.2 50.7C394 53.7 366 62.3 337.8 64.7C309.7 67 281.3 63 253.2 56.3C225 49.7 197 40.3 168.8 39.3C140.7 38.3 112.3 45.7 84.2 50.3C56 55 28 57 14 58L0 59Z" fill="#4988ff"></path><path d="M0 147L14 138C28 129 56 111 84.2 107.7C112.3 104.3 140.7 115.7 168.8 117C197 118.3 225 109.7 253.2 110.3C281.3 111 309.7 121 337.8 126.7C366 132.3 394 133.7 422.2 125.7C450.3 117.7 478.7 100.3 506.8 101.7C535 103 563 123 591.2 135C619.3 147 647.7 151 675.8 149C704 147 732 139 760 129.7C788 120.3 816 109.7 844.2 104.7C872.3 99.7 900.7 100.3 928.8 106C957 111.7 985 122.3 1013.2 131C1041.3 139.7 1069.7 146.3 1097.8 146.3C1126 146.3 1154 139.7 1182.2 134.3C1210.3 129 1238.7 125 1266.8 121C1295 117 1323 113 1351.2 112.7C1379.3 112.3 1407.7 115.7 1435.8 121C1464 126.3 1492 133.7 1506 137.3L1520 141L1520 107L1506 106.7C1492 106.3 1464 105.7 1435.8 104.7C1407.7 103.7 1379.3 102.3 1351.2 101.3C1323 100.3 1295 99.7 1266.8 103.7C1238.7 107.7 1210.3 116.3 1182.2 119.3C1154 122.3 1126 119.7 1097.8 116C1069.7 112.3 1041.3 107.7 1013.2 99C985 90.3 957 77.7 928.8 72C900.7 66.3 872.3 67.7 844.2 75C816 82.3 788 95.7 760 104.7C732 113.7 704 118.3 675.8 120C647.7 121.7 619.3 120.3 591.2 111C563 101.7 535 84.3 506.8 81.7C478.7 79 450.3 91 422.2 98.7C394 106.3 366 109.7 337.8 106.3C309.7 103 281.3 93 253.2 91C225 89 197 95 168.8 94.7C140.7 94.3 112.3 87.7 84.2 91.3C56 95 28 109 14 116L0 123Z" fill="#6198ff"></path><path d="M0 175L14 173.7C28 172.3 56 169.7 84.2 165.7C112.3 161.7 140.7 156.3 168.8 154.7C197 153 225 155 253.2 157.7C281.3 160.3 309.7 163.7 337.8 164C366 164.3 394 161.7 422.2 162C450.3 162.3 478.7 165.7 506.8 167C535 168.3 563 167.7 591.2 168.3C619.3 169 647.7 171 675.8 170.7C704 170.3 732 167.7 760 165C788 162.3 816 159.7 844.2 161C872.3 162.3 900.7 167.7 928.8 169C957 170.3 985 167.7 1013.2 167.3C1041.3 167 1069.7 169 1097.8 173C1126 177 1154 183 1182.2 183.3C1210.3 183.7 1238.7 178.3 1266.8 177C1295 175.7 1323 178.3 1351.2 180.3C1379.3 182.3 1407.7 183.7 1435.8 183C1464 182.3 1492 179.7 1506 178.3L1520 177L1520 139L1506 135.3C1492 131.7 1464 124.3 1435.8 119C1407.7 113.7 1379.3 110.3 1351.2 110.7C1323 111 1295 115 1266.8 119C1238.7 123 1210.3 127 1182.2 132.3C1154 137.7 1126 144.3 1097.8 144.3C1069.7 144.3 1041.3 137.7 1013.2 129C985 120.3 957 109.7 928.8 104C900.7 98.3 872.3 97.7 844.2 102.7C816 107.7 788 118.3 760 127.7C732 137 704 145 675.8 147C647.7 149 619.3 145 591.2 133C563 121 535 101 506.8 99.7C478.7 98.3 450.3 115.7 422.2 123.7C394 131.7 366 130.3 337.8 124.7C309.7 119 281.3 109 253.2 108.3C225 107.7 197 116.3 168.8 115C140.7 113.7 112.3 102.3 84.2 105.7C56 109 28 127 14 136L0 145Z" fill="#4988ff"></path><path d="M0 191L14 191.3C28 191.7 56 192.3 84.2 189.7C112.3 187 140.7 181 168.8 178.3C197 175.7 225 176.3 253.2 176C281.3 175.7 309.7 174.3 337.8 174.3C366 174.3 394 175.7 422.2 175.7C450.3 175.7 478.7 174.3 506.8 175.3C535 176.3 563 179.7 591.2 180.7C619.3 181.7 647.7 180.3 675.8 181C704 181.7 732 184.3 760 185C788 185.7 816 184.3 844.2 184C872.3 183.7 900.7 184.3 928.8 182.3C957 180.3 985 175.7 1013.2 174C1041.3 172.3 1069.7 173.7 1097.8 177.3C1126 181 1154 187 1182.2 188.3C1210.3 189.7 1238.7 186.3 1266.8 185.7C1295 185 1323 187 1351.2 188.3C1379.3 189.7 1407.7 190.3 1435.8 189.7C1464 189 1492 187 1506 186L1520 185L1520 175L1506 176.3C1492 177.7 1464 180.3 1435.8 181C1407.7 181.7 1379.3 180.3 1351.2 178.3C1323 176.3 1295 173.7 1266.8 175C1238.7 176.3 1210.3 181.7 1182.2 181.3C1154 181 1126 175 1097.8 171C1069.7 167 1041.3 165 1013.2 165.3C985 165.7 957 168.3 928.8 167C900.7 165.7 872.3 160.3 844.2 159C816 157.7 788 160.3 760 163C732 165.7 704 168.3 675.8 168.7C647.7 169 619.3 167 591.2 166.3C563 165.7 535 166.3 506.8 165C478.7 163.7 450.3 160.3 422.2 160C394 159.7 366 162.3 337.8 162C309.7 161.7 281.3 158.3 253.2 155.7C225 153 197 151 168.8 152.7C140.7 154.3 112.3 159.7 84.2 163.7C56 167.7 28 170.3 14 171.7L0 173Z" fill="#0062f3"></path><path d="M0 201L14 201C28 201 56 201 84.2 201C112.3 201 140.7 201 168.8 201C197 201 225 201 253.2 201C281.3 201 309.7 201 337.8 201C366 201 394 201 422.2 201C450.3 201 478.7 201 506.8 201C535 201 563 201 591.2 201C619.3 201 647.7 201 675.8 201C704 201 732 201 760 201C788 201 816 201 844.2 201C872.3 201 900.7 201 928.8 201C957 201 985 201 1013.2 201C1041.3 201 1069.7 201 1097.8 201C1126 201 1154 201 1182.2 201C1210.3 201 1238.7 201 1266.8 201C1295 201 1323 201 1351.2 201C1379.3 201 1407.7 201 1435.8 201C1464 201 1492 201 1506 201L1520 201L1520 183L1506 184C1492 185 1464 187 1435.8 187.7C1407.7 188.3 1379.3 187.7 1351.2 186.3C1323 185 1295 183 1266.8 183.7C1238.7 184.3 1210.3 187.7 1182.2 186.3C1154 185 1126 179 1097.8 175.3C1069.7 171.7 1041.3 170.3 1013.2 172C985 173.7 957 178.3 928.8 180.3C900.7 182.3 872.3 181.7 844.2 182C816 182.3 788 183.7 760 183C732 182.3 704 179.7 675.8 179C647.7 178.3 619.3 179.7 591.2 178.7C563 177.7 535 174.3 506.8 173.3C478.7 172.3 450.3 173.7 422.2 173.7C394 173.7 366 172.3 337.8 172.3C309.7 172.3 281.3 173.7 253.2 174C225 174.3 197 173.7 168.8 176.3C140.7 179 112.3 185 84.2 187.7C56 190.3 28 189.7 14 189.3L0 189Z" fill="#004cbb"></path></svg>